<svg width="20" height="20" viewBox="0 0 20 20" fill="none" xmlns="http://www.w3.org/2000/svg">
<path d="M8.95982 14.0503V15.742C8.95982 17.1753 7.62648 18.3336 5.98481 18.3336C4.34315 18.3336 3.00146 17.1753 3.00146 15.742V14.0503C3.00146 15.4836 4.33481 16.5003 5.98481 16.5003C7.62648 16.5003 8.95982 15.4753 8.95982 14.0503Z" stroke="#777E90" stroke-width="1.5" stroke-linecap="round" stroke-linejoin="round"/>
<path d="M8.95834 11.7584C8.95834 12.175 8.84167 12.5583 8.64167 12.8917C8.15001 13.7 7.14166 14.2084 5.975 14.2084C4.80833 14.2084 3.79999 13.6917 3.30832 12.8917C3.10832 12.5583 2.9917 12.175 2.9917 11.7584C2.9917 11.0417 3.32501 10.4 3.85835 9.93336C4.40001 9.45836 5.14165 9.17505 5.96665 9.17505C6.79165 9.17505 7.53335 9.46669 8.07501 9.93336C8.62501 10.3917 8.95834 11.0417 8.95834 11.7584Z" stroke="#777E90" stroke-width="1.5" stroke-linecap="round" stroke-linejoin="round"/>
<path d="M8.95982 11.7584V14.0501C8.95982 15.4834 7.62648 16.5001 5.98481 16.5001C4.34315 16.5001 3.00146 15.4751 3.00146 14.0501V11.7584C3.00146 10.3251 4.33481 9.16675 5.98481 9.16675C6.80981 9.16675 7.5515 9.45839 8.09317 9.92506C8.6265 10.3917 8.95982 11.0417 8.95982 11.7584Z" stroke="#777E90" stroke-width="1.5" stroke-linecap="round" stroke-linejoin="round"/>
<path d="M18.3333 9.14171V10.8584C18.3333 11.3168 17.9667 11.6917 17.5 11.7084H15.8667C14.9667 11.7084 14.1417 11.0501 14.0667 10.1501C14.0167 9.62507 14.2167 9.13339 14.5667 8.79173C14.875 8.47506 15.3 8.29175 15.7667 8.29175H17.5C17.9667 8.30841 18.3333 8.68338 18.3333 9.14171Z" stroke="#777E90" stroke-width="1.5" stroke-linecap="round" stroke-linejoin="round"/>
<path d="M1.6665 8.75008V7.08341C1.6665 4.81675 3.03317 3.23341 5.15817 2.96675C5.37484 2.93341 5.59984 2.91675 5.83317 2.91675H13.3332C13.5498 2.91675 13.7582 2.92507 13.9582 2.9584C16.1082 3.2084 17.4998 4.80008 17.4998 7.08341V8.29176H15.7665C15.2998 8.29176 14.8748 8.47507 14.5665 8.79174C14.2165 9.1334 14.0165 9.62508 14.0665 10.1501C14.1415 11.0501 14.9665 11.7084 15.8665 11.7084H17.4998V12.9167C17.4998 15.4167 15.8332 17.0834 13.3332 17.0834H11.2498" stroke="#777E90" stroke-width="1.5" stroke-linecap="round" stroke-linejoin="round"/>
</svg>
