<svg width="20" height="20" viewBox="0 0 20 20" fill="none" xmlns="http://www.w3.org/2000/svg">
<g id="vuesax/linear/crown">
<g id="crown">
<path id="Vector" d="M13.9168 15.8168H6.0835C5.7335 15.8168 5.34183 15.5418 5.22517 15.2085L1.77517 5.55846C1.2835 4.17513 1.8585 3.75013 3.04183 4.60013L6.29183 6.92513C6.8335 7.30013 7.45017 7.10846 7.6835 6.50013L9.15017 2.5918C9.61683 1.3418 10.3918 1.3418 10.8585 2.5918L12.3252 6.50013C12.5585 7.10846 13.1752 7.30013 13.7085 6.92513L16.7585 4.75013C18.0585 3.8168 18.6835 4.2918 18.1502 5.80013L14.7835 15.2251C14.6585 15.5418 14.2668 15.8168 13.9168 15.8168Z" stroke="#777E90" stroke-width="1.5" stroke-linecap="round" stroke-linejoin="round"/>
<path id="Vector_2" d="M5.4165 18.3335H14.5832" stroke="#777E90" stroke-width="1.5" stroke-linecap="round" stroke-linejoin="round"/>
<path id="Vector_3" d="M7.9165 11.6665H12.0832" stroke="#777E90" stroke-width="1.5" stroke-linecap="round" stroke-linejoin="round"/>
</g>
</g>
</svg>
