<svg width="20" height="20" viewBox="0 0 20 20" fill="none" xmlns="http://www.w3.org/2000/svg">
<g id="vuesax/linear/dollar-circle">
<g id="dollar-circle">
<path id="Vector" d="M7.22656 11.9417C7.22656 13.0167 8.05156 13.8834 9.07656 13.8834H11.1682C12.0599 13.8834 12.7849 13.125 12.7849 12.1917C12.7849 11.175 12.3432 10.8167 11.6849 10.5834L8.32656 9.4167C7.66823 9.18337 7.22656 8.82503 7.22656 7.80837C7.22656 6.87503 7.95156 6.1167 8.84323 6.1167H10.9349C11.9599 6.1167 12.7849 6.98337 12.7849 8.05837" stroke="#2CAE39" stroke-width="1.5" stroke-linecap="round" stroke-linejoin="round"/>
<path id="Vector_2" d="M10 5V15" stroke="#2CAE39" stroke-width="1.5" stroke-linecap="round" stroke-linejoin="round"/>
<path id="Vector_3" d="M10.0001 18.3332C14.6025 18.3332 18.3334 14.6022 18.3334 9.99984C18.3334 5.39746 14.6025 1.6665 10.0001 1.6665C5.39771 1.6665 1.66675 5.39746 1.66675 9.99984C1.66675 14.6022 5.39771 18.3332 10.0001 18.3332Z" stroke="#2CAE39" stroke-width="1.5" stroke-linecap="round" stroke-linejoin="round"/>
</g>
</g>
</svg>
