<svg width="48" height="48" viewBox="0 0 48 48" fill="none" xmlns="http://www.w3.org/2000/svg">
<g clip-path="url(#clip0_2607_26945)">
<path d="M8.25806 18.0557H47.2962V42.0791H8.25806V18.0557Z" fill="#8AD8F6"/>
<path d="M45.0439 18.0557H47.2961V42.0791H45.0439V18.0557Z" fill="#3CA6E6"/>
<path d="M12.7625 22.5605H42.7918V42.0796H12.7625V22.5605Z" fill="#92A2B5"/>
<path d="M40.5396 22.5605H42.7918V42.0796H40.5396V22.5605Z" fill="#667B93"/>
<path d="M12.7625 22.5605H42.7918V25.5635H12.7625V22.5605Z" fill="white"/>
<path d="M40.5396 22.5605H42.7918V25.5635H40.5396V22.5605Z" fill="#C4E2F6"/>
<path d="M36.7859 36.0732H30.78V30.0674H36.7859V36.0732Z" fill="#F3A451"/>
<path d="M36.7859 36.0732H35.2844V30.0674H36.7859V36.0732Z" fill="#D9694B"/>
<path d="M39.7888 42.0791H33.783V36.0732H39.7888V42.0791Z" fill="#F3A451"/>
<path d="M39.7888 42.0791H38.2874V36.0732H39.7888V42.0791Z" fill="#D9694B"/>
<path d="M33.783 42.0791H27.7771V36.0732H33.783V42.0791Z" fill="#F3A451"/>
<path d="M33.783 42.0791H32.2815V36.0732H33.783V42.0791Z" fill="#D9694B"/>
<path d="M47.2962 15.0527H8.25806L27.7771 3.04102L47.2962 15.0527Z" fill="#92A2B5"/>
<path d="M24.0234 11.3467H25.5249V12.7543H24.0234V11.3467Z" fill="white"/>
<path d="M27.0264 11.3467H28.5278V12.7543H27.0264V11.3467Z" fill="black"/>
<path d="M30.0293 11.3467H31.5308V12.7543H30.0293V11.3467Z" fill="white"/>
<path d="M27.7771 3.04102L26.2756 3.96507L44.2932 15.0527H47.2962L27.7771 3.04102Z" fill="#667B93"/>
<path d="M8.25806 15.0527H47.2962V18.0557H8.25806V15.0527Z" fill="#F05475"/>
<path d="M45.0439 15.0527H47.2961V18.0557H45.0439V15.0527Z" fill="#E21743"/>
<path d="M0 21.0586H12.7625V42.0791H0V21.0586Z" fill="#F05475"/>
<path d="M0 36.0732H12.7625V42.0791H0V36.0732Z" fill="#92A2B5"/>
<path d="M24.7742 42.0796H12.7625V28.5664H18.7683L24.7742 34.5723V42.0796Z" fill="#92A2B5"/>
<path d="M12.7625 34.5723H15.0147V42.0796H12.7625V34.5723Z" fill="#667B93"/>
<path d="M24.7742 34.5723H12.7625V28.5664H18.7683L24.7742 34.5723Z" fill="#8AD8F6"/>
<path d="M12.7625 28.5664H15.0147V34.5723H12.7625V28.5664Z" fill="#3CA6E6"/>
<path d="M18.7683 45.082C20.4268 45.082 21.7712 43.7376 21.7712 42.0791C21.7712 40.4206 20.4268 39.0762 18.7683 39.0762C17.1098 39.0762 15.7654 40.4206 15.7654 42.0791C15.7654 43.7376 17.1098 45.082 18.7683 45.082Z" fill="#667B93"/>
<path d="M18.0176 41.375H19.519V42.7826H18.0176V41.375Z" fill="white"/>
<path d="M14.2639 36.1201H17.2668V37.5277H14.2639V36.1201Z" fill="white"/>
<path d="M3.00293 38.373H10.5103V39.7807H3.00293V38.373Z" fill="black"/>
<path d="M48 27.8154V14.6597L27.7771 2.21484L7.55425 14.6597V20.355H0V21.7626H12.0587V35.3697H0V36.7773H12.0587V41.3755H0V42.7831H15.1294C15.4593 44.4915 16.9651 45.7861 18.7683 45.7861C20.5716 45.7861 22.0774 44.4915 22.4072 42.7831H48V29.3169H46.5924V41.3755H43.4956V21.8565H13.4663V20.355H8.96188V18.7597H18.7683V17.3521H8.96188V15.7568H46.5924V17.3521H20.2698V18.7597H46.5924V27.8154H48ZM18.7683 44.3785C17.5005 44.3785 16.4692 43.3471 16.4692 42.0793C16.4692 40.8115 17.5005 39.7802 18.7683 39.7802C20.0361 39.7802 21.0674 40.8115 21.0674 42.0793C21.0674 43.3471 20.0361 44.3785 18.7683 44.3785ZM18.7683 38.3726C16.9651 38.3726 15.4593 39.6671 15.1294 41.3755H13.4663V35.2758H24.0704V41.3755H22.4072C22.0774 39.6672 20.5716 38.3726 18.7683 38.3726ZM13.4663 33.8682V29.27H18.4769L23.0751 33.8682H13.4663ZM34.4868 33.0705V30.7714H36.0821V35.3697H31.4839V30.7714H33.0792V33.0705H34.4868ZM39.085 41.3755H34.4868V36.7773H36.0821V39.0764H37.4897V36.7773H39.085V41.3755ZM31.4839 39.0764V36.7773H33.0792V41.3755H28.4809V36.7773H30.0762V39.0764H31.4839ZM40.4927 41.3755V35.3697H37.4897V29.3638H30.0762V35.3697H27.0733V41.3755H25.478V34.2805L19.0598 27.8623H13.4663V26.267H42.088V41.3755H40.4927ZM42.088 23.2641V24.8594H13.4663V23.2641H42.088ZM44.8095 14.3491H10.7447L27.7771 3.86768L44.8095 14.3491Z" fill="#422C77"/>
<rect x="1" y="26.5" width="5" height="1" fill="white"/>
<rect x="1" y="29.5" width="8" height="1" fill="white"/>
</g>
<defs>
<clipPath id="clip0_2607_26945">
<rect width="48" height="48" fill="white"/>
</clipPath>
</defs>
</svg>
