<svg width="20" height="20" viewBox="0 0 20 20" fill="none" xmlns="http://www.w3.org/2000/svg">
<path d="M3.33333 18.3337H16.6667C16.8877 18.3337 17.0996 18.2459 17.2559 18.0896C17.4122 17.9333 17.5 17.7213 17.5 17.5003V10.8337H15.8333V16.667H4.16667V3.33366H8.33333V1.66699H3.33333C3.11232 1.66699 2.90036 1.75479 2.74408 1.91107C2.5878 2.06735 2.5 2.27931 2.5 2.50033V17.5003C2.5 17.7213 2.5878 17.9333 2.74408 18.0896C2.90036 18.2459 3.11232 18.3337 3.33333 18.3337Z" fill="#777E90"/>
<path d="M9.99984 9.99967C10.4601 9.99967 10.8332 9.62658 10.8332 9.16634C10.8332 8.7061 10.4601 8.33301 9.99984 8.33301C9.5396 8.33301 9.1665 8.7061 9.1665 9.16634C9.1665 9.62658 9.5396 9.99967 9.99984 9.99967Z" fill="#777E90"/>
<path d="M12.5 9.16667H14.1667C14.1667 8.0616 13.7277 7.00179 12.9463 6.22039C12.1649 5.43899 11.1051 5 10 5V6.66667C10.663 6.66667 11.2989 6.93006 11.7678 7.3989C12.2366 7.86774 12.5 8.50363 12.5 9.16667Z" fill="#777E90"/>
<path d="M15.8335 9.16699H17.5002C17.5002 7.17787 16.71 5.27021 15.3035 3.86369C13.8969 2.45717 11.9893 1.66699 10.0002 1.66699V3.33366C11.5473 3.33366 13.031 3.94824 14.125 5.0422C15.2189 6.13616 15.8335 7.6199 15.8335 9.16699ZM8.04183 13.0587C8.04179 12.9091 8.00149 12.7623 7.92516 12.6337C7.85105 12.5149 7.7397 12.4241 7.6085 12.3753C7.40572 12.3161 7.19454 12.2907 6.9835 12.3003H5.8335V15.0003H6.37516V13.8753H6.49183C6.58313 13.8637 6.67553 13.8637 6.76683 13.8753C6.82705 13.903 6.88094 13.9427 6.92516 13.992C7.03069 14.1191 7.1281 14.2527 7.21683 14.392L7.6085 14.9753H8.2585L7.9335 14.4503C7.84168 14.2937 7.73568 14.1459 7.61683 14.0087C7.53375 13.9169 7.43498 13.8407 7.32516 13.7837C7.52745 13.768 7.71708 13.6791 7.8585 13.5337C7.97707 13.404 8.04251 13.2344 8.04183 13.0587ZM7.42516 13.3337C7.38754 13.3863 7.33542 13.4268 7.27516 13.4503C7.11192 13.4709 6.94674 13.4709 6.7835 13.4503H6.37516V12.767H7.2085C7.28878 12.7766 7.36282 12.8151 7.41683 12.8753C7.46953 12.9348 7.4965 13.0127 7.49183 13.092C7.49943 13.1779 7.47576 13.2638 7.42516 13.3337ZM9.10016 13.8503H10.2335V13.4003H9.10016V12.7587H10.4085V12.3003H8.5585V15.0003H9.10016V13.8503ZM10.8418 12.3003H11.3835V15.0003H10.8418V12.3003ZM13.4168 12.3503C13.2474 12.312 13.0738 12.2952 12.9002 12.3003H11.9002V15.0003H12.9335C13.094 15.007 13.2544 14.9873 13.4085 14.942C13.5524 14.903 13.6842 14.8285 13.7918 14.7253C13.9274 14.594 14.0277 14.4306 14.0835 14.2503C14.1447 14.065 14.1729 13.8704 14.1668 13.6753C14.1712 13.4606 14.1402 13.2466 14.0752 13.042C14.0247 12.8766 13.9362 12.7254 13.8168 12.6003C13.7078 12.4832 13.5699 12.397 13.4168 12.3503ZM13.5502 14.167C13.5245 14.2633 13.4759 14.3519 13.4085 14.4253C13.3445 14.4809 13.2668 14.5183 13.1835 14.5337C13.0755 14.5455 12.9665 14.5455 12.8585 14.5337H12.4502V12.7587H12.6918C12.8415 12.7454 12.9921 12.7454 13.1418 12.7587C13.234 12.7798 13.3197 12.8226 13.3918 12.8837C13.4643 12.9592 13.5185 13.0505 13.5502 13.1503C13.589 13.3055 13.6058 13.4654 13.6002 13.6253C13.6081 13.8073 13.5913 13.9895 13.5502 14.167Z" fill="#777E90"/>
</svg>
