<svg width="20" height="20" viewBox="0 0 20 20" fill="none" xmlns="http://www.w3.org/2000/svg">
<path d="M15.1166 18.0166C14.3833 18.2333 13.5166 18.3333 12.5 18.3333H7.49997C6.4833 18.3333 5.61663 18.2333 4.8833 18.0166C5.06663 15.85 7.29163 14.1416 9.99997 14.1416C12.7083 14.1416 14.9333 15.85 15.1166 18.0166Z" stroke="#777E90" stroke-width="1.5" stroke-linecap="round" stroke-linejoin="round"/>
<path d="M12.4998 1.6665H7.49984C3.33317 1.6665 1.6665 3.33317 1.6665 7.49984V12.4998C1.6665 15.6498 2.6165 17.3748 4.88317 18.0165C5.0665 15.8498 7.2915 14.1415 9.99984 14.1415C12.7082 14.1415 14.9332 15.8498 15.1165 18.0165C17.3832 17.3748 18.3332 15.6498 18.3332 12.4998V7.49984C18.3332 3.33317 16.6665 1.6665 12.4998 1.6665ZM9.99984 11.8082C8.34984 11.8082 7.0165 10.4665 7.0165 8.81652C7.0165 7.16652 8.34984 5.83317 9.99984 5.83317C11.6498 5.83317 12.9832 7.16652 12.9832 8.81652C12.9832 10.4665 11.6498 11.8082 9.99984 11.8082Z" stroke="#777E90" stroke-width="1.5" stroke-linecap="round" stroke-linejoin="round"/>
<path d="M12.9833 8.81684C12.9833 10.4668 11.6499 11.8085 9.99994 11.8085C8.34994 11.8085 7.0166 10.4668 7.0166 8.81684C7.0166 7.16684 8.34994 5.8335 9.99994 5.8335C11.6499 5.8335 12.9833 7.16684 12.9833 8.81684Z" stroke="#777E90" stroke-width="1.5" stroke-linecap="round" stroke-linejoin="round"/>
</svg>
