<svg width="32" height="32" viewBox="0 0 32 32" fill="none" xmlns="http://www.w3.org/2000/svg">
<path d="M21.2605 8.48903H24.2053C23.7502 7.57029 23.1507 6.73055 22.4295 6.00186C21.7016 5.27475 20.8598 4.67154 19.9373 4.2161V7.17085C19.939 7.52078 20.0792 7.85581 20.3271 8.10278C20.575 8.34976 20.9105 8.48861 21.2605 8.48903ZM10.3469 14.1548H3.98971C3.7284 14.1547 3.46963 14.2061 3.22819 14.3061C2.98676 14.406 2.76738 14.5526 2.58261 14.7374C2.39783 14.9221 2.25127 15.1415 2.15131 15.383C2.05134 15.6244 1.99993 15.8832 2 16.1445V26.7696C2.0007 27.2971 2.21055 27.8028 2.58354 28.1757C2.95653 28.5487 3.46222 28.7586 3.98971 28.7593H10.3469C10.8744 28.7585 11.38 28.5486 11.753 28.1757C12.1259 27.8027 12.3358 27.297 12.3366 26.7696V16.1445C12.3367 15.8832 12.2853 15.6244 12.1853 15.383C12.0853 15.1415 11.9388 14.9221 11.754 14.7374C11.5692 14.5526 11.3498 14.406 11.1084 14.3061C10.867 14.2061 10.6082 14.1547 10.3469 14.1548ZM3.47739 16.4628C3.47778 16.331 3.53031 16.2047 3.62351 16.1115C3.71672 16.0183 3.84301 15.9658 3.97482 15.9654H10.3618C10.4936 15.9658 10.6199 16.0183 10.7131 16.1115C10.8063 16.2047 10.8589 16.331 10.8593 16.4628V18.7361C10.8589 18.8679 10.8063 18.9942 10.7131 19.0874C10.6199 19.1806 10.4936 19.2331 10.3618 19.2335H3.9748C3.84299 19.2331 3.71669 19.1806 3.62349 19.0874C3.53028 18.9942 3.47775 18.8679 3.47736 18.7361L3.47739 16.4628ZM5.04925 27.0531H3.9748C3.84426 27.051 3.71979 26.9977 3.62822 26.9046C3.53666 26.8115 3.48535 26.6862 3.48535 26.5557C3.48536 26.4251 3.53668 26.2998 3.62824 26.2067C3.71981 26.1137 3.84429 26.0603 3.97483 26.0582H5.04925C5.17979 26.0604 5.30426 26.1137 5.39583 26.2067C5.48739 26.2998 5.53871 26.4251 5.53871 26.5557C5.53871 26.6862 5.48739 26.8115 5.39583 26.9046C5.30426 26.9977 5.17979 27.051 5.04925 27.0531ZM5.04925 24.2874H3.9748C3.84426 24.2853 3.71979 24.2319 3.62822 24.1389C3.53666 24.0458 3.48535 23.9205 3.48535 23.79C3.48536 23.6594 3.53668 23.5341 3.62824 23.441C3.71981 23.348 3.84429 23.2946 3.97483 23.2925H5.04925C5.17979 23.2946 5.30426 23.348 5.39583 23.441C5.48739 23.5341 5.53871 23.6594 5.53871 23.79C5.53871 23.9205 5.48739 24.0458 5.39583 24.1389C5.30426 24.232 5.17979 24.2853 5.04925 24.2874ZM5.04925 21.5217H3.9748C3.84426 21.5196 3.71979 21.4662 3.62822 21.3732C3.53666 21.2801 3.48535 21.1548 3.48535 21.0242C3.48536 20.8937 3.53668 20.7684 3.62824 20.6753C3.71981 20.5823 3.84429 20.5289 3.97483 20.5268H5.04925C5.17984 20.5288 5.3044 20.5821 5.39603 20.6752C5.48766 20.7683 5.53902 20.8937 5.53902 21.0243C5.53902 21.1549 5.48766 21.2802 5.39603 21.3733C5.3044 21.4664 5.17984 21.5197 5.04925 21.5217ZM7.7055 27.0531H6.63108C6.50055 27.051 6.37608 26.9977 6.28451 26.9046C6.19295 26.8115 6.14164 26.6862 6.14164 26.5557C6.14165 26.4251 6.19297 26.2998 6.28453 26.2067C6.3761 26.1137 6.50058 26.0603 6.63111 26.0582H7.7055C7.83604 26.0604 7.96051 26.1137 8.05208 26.2067C8.14364 26.2998 8.19496 26.4251 8.19496 26.5557C8.19496 26.6862 8.14364 26.8115 8.05208 26.9046C7.96051 26.9977 7.83604 27.051 7.7055 27.0531ZM7.7055 24.2874H6.63108C6.50055 24.2853 6.37608 24.2319 6.28451 24.1389C6.19295 24.0458 6.14164 23.9205 6.14164 23.79C6.14165 23.6594 6.19297 23.5341 6.28453 23.441C6.3761 23.348 6.50058 23.2946 6.63111 23.2925H7.7055C7.83604 23.2946 7.96051 23.348 8.05208 23.441C8.14364 23.5341 8.19496 23.6594 8.19496 23.79C8.19496 23.9205 8.14364 24.0458 8.05208 24.1389C7.96051 24.232 7.83604 24.2853 7.7055 24.2874ZM7.7055 21.5217H6.63108C6.50055 21.5196 6.37608 21.4662 6.28451 21.3732C6.19295 21.2801 6.14164 21.1548 6.14164 21.0242C6.14165 20.8937 6.19297 20.7684 6.28453 20.6753C6.3761 20.5823 6.50058 20.5289 6.63111 20.5268H7.7055C7.83609 20.5288 7.96065 20.5821 8.05228 20.6752C8.14391 20.7683 8.19527 20.8937 8.19527 21.0243C8.19527 21.1549 8.14391 21.2802 8.05228 21.3733C7.96065 21.4664 7.83609 21.5197 7.7055 21.5217ZM10.3817 27.0531H9.30723C9.1767 27.051 9.05223 26.9977 8.96066 26.9046C8.8691 26.8115 8.81779 26.6862 8.81779 26.5557C8.8178 26.4251 8.86912 26.2998 8.96068 26.2067C9.05225 26.1137 9.17673 26.0603 9.30727 26.0582H10.3817C10.5122 26.0604 10.6367 26.1137 10.7283 26.2067C10.8198 26.2998 10.8711 26.4251 10.8711 26.5557C10.8711 26.6862 10.8198 26.8115 10.7283 26.9046C10.6367 26.9977 10.5122 27.051 10.3817 27.0531ZM10.3817 24.2874H9.30723C9.1767 24.2853 9.05223 24.2319 8.96066 24.1389C8.8691 24.0458 8.81779 23.9205 8.81779 23.79C8.8178 23.6594 8.86912 23.5341 8.96068 23.441C9.05225 23.348 9.17673 23.2946 9.30727 23.2925H10.3817C10.5122 23.2946 10.6367 23.348 10.7283 23.441C10.8198 23.5341 10.8711 23.6594 10.8711 23.79C10.8711 23.9205 10.8198 24.0458 10.7283 24.1389C10.6367 24.232 10.5122 24.2853 10.3817 24.2874ZM10.3817 21.5217H9.30723C9.1767 21.5196 9.05223 21.4662 8.96066 21.3732C8.8691 21.2801 8.81779 21.1548 8.81779 21.0242C8.8178 20.8937 8.86912 20.7684 8.96068 20.6753C9.05225 20.5823 9.17673 20.5289 9.30727 20.5268H10.3817C10.5123 20.5288 10.6368 20.5821 10.7285 20.6752C10.8201 20.7683 10.8715 20.8937 10.8715 21.0243C10.8715 21.1549 10.8201 21.2802 10.7285 21.3733C10.6368 21.4664 10.5123 21.5197 10.3817 21.5217ZM9.86436 16.9603H4.4722V18.2387H9.86436V16.9603ZM21.2605 9.48387C20.6467 9.48354 20.058 9.2399 19.6235 8.80634C19.189 8.37279 18.9441 7.78467 18.9425 7.17087V3.79825C17.9106 3.42422 16.8216 3.23235 15.7241 3.2312H8.98889C8.37507 3.23154 7.78642 3.47518 7.35192 3.90875C6.91743 4.34232 6.67251 4.93044 6.67086 5.54426V13.1599H10.3469C11.1383 13.1605 11.897 13.4752 12.4566 14.0347C13.0162 14.5943 13.3308 15.3531 13.3315 16.1445V26.7696C13.3299 27.5084 13.0553 28.2206 12.5604 28.7692H22.8871C23.5009 28.7689 24.0895 28.5252 24.524 28.0917C24.9585 27.6581 25.2035 27.07 25.2051 26.4562V12.7023C25.2018 11.6045 25.0083 10.5156 24.6331 9.48387H21.2605ZM9.57586 12.4088C9.44548 12.4064 9.32123 12.353 9.22986 12.2599C9.13848 12.1669 9.08729 12.0417 9.08729 11.9113C9.0873 11.7809 9.1385 11.6557 9.22988 11.5627C9.32126 11.4697 9.44551 11.4162 9.57588 11.4139H22.3001C22.4305 11.4162 22.5547 11.4697 22.6461 11.5627C22.7375 11.6557 22.7887 11.7809 22.7887 11.9113C22.7887 12.0417 22.7375 12.1669 22.6461 12.2599C22.5547 12.353 22.4305 12.4064 22.3001 12.4088H9.57586ZM16.4503 25.133H14.3263C14.1959 25.1307 14.0717 25.0772 13.9803 24.9842C13.8889 24.8912 13.8378 24.766 13.8378 24.6356C13.8378 24.5052 13.889 24.38 13.9803 24.287C14.0717 24.1939 14.196 24.1405 14.3264 24.1382H16.4503C16.5807 24.1405 16.7049 24.1939 16.7963 24.287C16.8877 24.38 16.9389 24.5052 16.9389 24.6356C16.9389 24.766 16.8877 24.8912 16.7963 24.9842C16.7049 25.0772 16.5807 25.1307 16.4503 25.133ZM16.4503 20.8949H14.3263C14.1958 20.8928 14.0713 20.8395 13.9797 20.7464C13.8882 20.6533 13.8369 20.528 13.8369 20.3975C13.8369 20.2669 13.8882 20.1416 13.9798 20.0485C14.0713 19.9555 14.1958 19.9022 14.3264 19.9001H16.4503C16.5808 19.9022 16.7053 19.9555 16.7969 20.0485C16.8884 20.1416 16.9398 20.2669 16.9398 20.3975C16.9398 20.528 16.8885 20.6534 16.7969 20.7464C16.7053 20.8395 16.5809 20.8928 16.4503 20.8949ZM20.6188 21.8649C21.0319 21.8703 21.426 22.0393 21.7146 22.335C22.0032 22.6306 22.1627 23.0287 22.1581 23.4418C22.1535 23.8549 21.9851 24.2493 21.69 24.5384C21.3948 24.8275 20.9971 24.9877 20.5839 24.9838C20.6145 25.3587 20.5503 25.7622 20.0865 25.7797C19.9547 25.7793 19.8284 25.7268 19.7352 25.6336C19.642 25.5404 19.5895 25.4141 19.5891 25.2823V24.9838H18.4997C18.3692 24.9817 18.2447 24.9284 18.1532 24.8353C18.0616 24.7423 18.0103 24.6169 18.0103 24.4864C18.0103 24.3558 18.0616 24.2305 18.1532 24.1375C18.2447 24.0444 18.3692 23.9911 18.4998 23.989H19.5891V22.8598H19.5593C19.1466 22.8554 18.7526 22.6874 18.4637 22.3926C18.1749 22.0979 18.0148 21.7005 18.0188 21.2879C18.0228 20.8752 18.1904 20.481 18.4848 20.1919C18.7793 19.9027 19.1765 19.7423 19.5892 19.7458L19.5891 19.4474C19.5895 19.3156 19.642 19.1893 19.7352 19.0961C19.8284 19.0029 19.9547 18.9504 20.0865 18.95C20.5515 18.9704 20.6137 19.3665 20.5839 19.7458H21.6783C21.8085 19.7485 21.9325 19.802 22.0237 19.895C22.1148 19.988 22.1659 20.1131 22.1659 20.2433C22.1659 20.3735 22.1148 20.4986 22.0236 20.5916C21.9325 20.6846 21.8085 20.7381 21.6783 20.7407H20.584V21.8649L20.6188 21.8649ZM22.3001 16.6469H14.3263C14.1958 16.6448 14.0713 16.5915 13.9798 16.4984C13.8882 16.4053 13.8369 16.28 13.8369 16.1495C13.8369 16.0189 13.8882 15.8936 13.9798 15.8005C14.0714 15.7075 14.1958 15.6542 14.3264 15.6521H22.3001C22.4304 15.6545 22.5546 15.7079 22.6459 15.8009C22.7373 15.894 22.7884 16.0191 22.7884 16.1495C22.7884 16.2798 22.7373 16.405 22.6459 16.498C22.5546 16.591 22.4305 16.6445 22.3001 16.6469ZM20.584 23.9889C20.66 23.992 20.7359 23.9797 20.8071 23.9527C20.8782 23.9257 20.9432 23.8846 20.9981 23.8318C21.053 23.7791 21.0966 23.7158 21.1265 23.6458C21.1563 23.5758 21.1717 23.5005 21.1717 23.4243C21.1717 23.3482 21.1563 23.2729 21.1265 23.2029C21.0966 23.1329 21.053 23.0696 20.9981 23.0169C20.9432 22.9641 20.8782 22.923 20.807 22.896C20.7359 22.8691 20.66 22.8567 20.5839 22.8598L20.584 23.9889ZM18.9972 21.3028C18.9969 21.3793 19.0122 21.455 19.0422 21.5253C19.0722 21.5956 19.1163 21.659 19.1718 21.7117C19.2272 21.7643 19.2928 21.8051 19.3646 21.8314C19.4364 21.8578 19.5128 21.8692 19.5891 21.8649V20.7407C19.5129 20.7369 19.4366 20.7485 19.365 20.775C19.2935 20.8015 19.228 20.8423 19.1726 20.8949C19.1173 20.9475 19.0732 21.0107 19.043 21.0808C19.0129 21.151 18.9973 21.2265 18.9972 21.3028ZM28.4936 7.51408C27.099 7.53028 26.9375 8.32158 27.0033 9.60824H29.9879C30.0535 8.31967 29.8923 7.5301 28.4936 7.51408ZM27.0033 20.8352H29.9879V10.6031H27.0033V20.8352ZM28.122 24.9689C28.1384 25.0554 28.1845 25.1336 28.2523 25.1898C28.3201 25.2461 28.4055 25.2768 28.4936 25.2768C28.5817 25.2768 28.6671 25.246 28.7349 25.1898C28.8028 25.1336 28.8488 25.0554 28.8652 24.9688L29.8601 21.8301H27.1272L28.122 24.9689Z" fill="#2367ED"/>
</svg>
