<svg width="20" height="20" viewBox="0 0 20 20" fill="none" xmlns="http://www.w3.org/2000/svg">
<g id="vuesax/linear/money-recive">
<g id="Group">
<path id="Vector" d="M7.91675 11.4585C7.91675 12.2669 8.54176 12.9169 9.30843 12.9169H10.8751C11.5417 12.9169 12.0834 12.3502 12.0834 11.6419C12.0834 10.8835 11.7501 10.6085 11.2584 10.4335L8.75008 9.55853C8.25841 9.38353 7.92509 9.11686 7.92509 8.35019C7.92509 7.65019 8.46674 7.0752 9.13341 7.0752H10.7001C11.4667 7.0752 12.0918 7.7252 12.0918 8.53353" stroke="#F27A37" stroke-width="1.5" stroke-linecap="round" stroke-linejoin="round"/>
<path id="Vector_2" d="M10 6.25V13.75" stroke="#F27A37" stroke-width="1.5" stroke-linecap="round" stroke-linejoin="round"/>
</g>
<path id="Vector_3" d="M18.3334 9.99984C18.3334 14.5998 14.6001 18.3332 10.0001 18.3332C5.40008 18.3332 1.66675 14.5998 1.66675 9.99984C1.66675 5.39984 5.40008 1.6665 10.0001 1.6665" stroke="#F27A37" stroke-width="1.5" stroke-linecap="round" stroke-linejoin="round"/>
<path id="Vector_4" d="M14.1667 2.5V5.83333H17.5001" stroke="#F27A37" stroke-width="1.5" stroke-linecap="round" stroke-linejoin="round"/>
<path id="Vector_5" d="M18.3334 1.6665L14.1667 5.83317" stroke="#F27A37" stroke-width="1.5" stroke-linecap="round" stroke-linejoin="round"/>
</g>
</svg>
