<svg width="20" height="20" viewBox="0 0 20 20" fill="none" xmlns="http://www.w3.org/2000/svg">
<path d="M14.9999 5.96651C14.9499 5.95817 14.8916 5.95817 14.8416 5.96651C13.6916 5.92484 12.7749 4.98317 12.7749 3.81651C12.7749 2.62484 13.7332 1.6665 14.9249 1.6665C16.1166 1.6665 17.0749 2.63317 17.0749 3.81651C17.0666 4.98317 16.1499 5.92484 14.9999 5.96651Z" stroke="#777E90" stroke-width="1.5" stroke-linecap="round" stroke-linejoin="round"/>
<path d="M14.1417 12.0333C15.2834 12.225 16.5417 12.025 17.425 11.4333C18.6 10.65 18.6 9.36664 17.425 8.58331C16.5334 7.99164 15.2584 7.79163 14.1167 7.99163" stroke="#777E90" stroke-width="1.5" stroke-linecap="round" stroke-linejoin="round"/>
<path d="M4.97539 5.96651C5.02539 5.95817 5.08372 5.95817 5.13372 5.96651C6.28372 5.92484 7.20039 4.98317 7.20039 3.81651C7.20039 2.62484 6.24206 1.6665 5.05039 1.6665C3.85873 1.6665 2.90039 2.63317 2.90039 3.81651C2.90872 4.98317 3.82539 5.92484 4.97539 5.96651Z" stroke="#777E90" stroke-width="1.5" stroke-linecap="round" stroke-linejoin="round"/>
<path d="M5.83353 12.0333C4.69186 12.225 3.43353 12.025 2.5502 11.4333C1.3752 10.65 1.3752 9.36664 2.5502 8.58331C3.44186 7.99164 4.71686 7.79163 5.85853 7.99163" stroke="#777E90" stroke-width="1.5" stroke-linecap="round" stroke-linejoin="round"/>
<path d="M9.9999 12.1916C9.9499 12.1833 9.89157 12.1833 9.84157 12.1916C8.69157 12.1499 7.7749 11.2083 7.7749 10.0416C7.7749 8.84994 8.73323 7.8916 9.9249 7.8916C11.1166 7.8916 12.0749 8.85827 12.0749 10.0416C12.0666 11.2083 11.1499 12.1583 9.9999 12.1916Z" stroke="#777E90" stroke-width="1.5" stroke-linecap="round" stroke-linejoin="round"/>
<path d="M7.5751 14.8168C6.4001 15.6001 6.4001 16.8835 7.5751 17.6668C8.90843 18.5585 11.0918 18.5585 12.4251 17.6668C13.6001 16.8835 13.6001 15.6001 12.4251 14.8168C11.1001 13.9335 8.90843 13.9335 7.5751 14.8168Z" stroke="#777E90" stroke-width="1.5" stroke-linecap="round" stroke-linejoin="round"/>
</svg>
