<svg width="20" height="20" viewBox="0 0 20 20" fill="none" xmlns="http://www.w3.org/2000/svg">
<path d="M17.5 5.83268V14.166C17.5 16.666 16.25 18.3327 13.3333 18.3327H6.66667C3.75 18.3327 2.5 16.666 2.5 14.166V5.83268C2.5 3.33268 3.75 1.66602 6.66667 1.66602H13.3333C16.25 1.66602 17.5 3.33268 17.5 5.83268Z" stroke="#777E90" stroke-width="1.5" stroke-miterlimit="10" stroke-linecap="round" stroke-linejoin="round"/>
<path d="M12.9168 1.66602V8.216C12.9168 8.58267 12.4835 8.766 12.2168 8.52433L10.2835 6.74104C10.1252 6.59104 9.87514 6.59104 9.71681 6.74104L7.78352 8.52433C7.51685 8.766 7.0835 8.58267 7.0835 8.216V1.66602H12.9168Z" stroke="#777E90" stroke-width="1.5" stroke-miterlimit="10" stroke-linecap="round" stroke-linejoin="round"/>
<path d="M11.0415 11.666H14.5832" stroke="#777E90" stroke-width="1.5" stroke-miterlimit="10" stroke-linecap="round" stroke-linejoin="round"/>
<path d="M7.5 15H14.5833" stroke="#777E90" stroke-width="1.5" stroke-miterlimit="10" stroke-linecap="round" stroke-linejoin="round"/>
</svg>
