<svg width="20" height="20" viewBox="0 0 20 20" fill="none" xmlns="http://www.w3.org/2000/svg">
<path d="M6.6665 1.66602V4.16602" stroke="#777E90" stroke-width="1.5" stroke-miterlimit="10" stroke-linecap="round" stroke-linejoin="round"/>
<path d="M13.3335 1.66602V4.16602" stroke="#777E90" stroke-width="1.5" stroke-miterlimit="10" stroke-linecap="round" stroke-linejoin="round"/>
<path d="M17.5 7.08268V11.3577C16.7583 10.766 15.8167 10.416 14.7917 10.416C13.7667 10.416 12.8083 10.7743 12.0583 11.3827C11.05 12.1743 10.4167 13.416 10.4167 14.791C10.4167 15.6077 10.65 16.391 11.05 17.041C11.3583 17.5494 11.7583 17.991 12.2333 18.3327H6.66667C3.75 18.3327 2.5 16.666 2.5 14.166V7.08268C2.5 4.58268 3.75 2.91602 6.66667 2.91602H13.3333C16.25 2.91602 17.5 4.58268 17.5 7.08268Z" stroke="#777E90" stroke-width="1.5" stroke-miterlimit="10" stroke-linecap="round" stroke-linejoin="round"/>
<path d="M5.8335 9.16602H10.8335" stroke="#777E90" stroke-width="1.5" stroke-miterlimit="10" stroke-linecap="round" stroke-linejoin="round"/>
<path d="M5.8335 13.334H8.01683" stroke="#777E90" stroke-width="1.5" stroke-miterlimit="10" stroke-linecap="round" stroke-linejoin="round"/>
<path d="M19.1665 14.791C19.1665 15.6077 18.9332 16.391 18.5332 17.041C18.2998 17.441 18.0082 17.791 17.6665 18.0744C16.8998 18.7577 15.8998 19.166 14.7915 19.166C13.8332 19.166 12.9498 18.8577 12.2332 18.3327C11.7582 17.991 11.3582 17.5494 11.0498 17.041C10.6498 16.391 10.4165 15.6077 10.4165 14.791C10.4165 13.416 11.0498 12.1743 12.0582 11.3827C12.8082 10.7743 13.7665 10.416 14.7915 10.416C15.8165 10.416 16.7582 10.766 17.4998 11.3577C18.5165 12.1577 19.1665 13.3993 19.1665 14.791Z" stroke="#777E90" stroke-width="1.5" stroke-miterlimit="10" stroke-linecap="round" stroke-linejoin="round"/>
<path d="M14.7918 16.8757C14.7918 15.7257 15.7252 14.7923 16.8752 14.7923C15.7252 14.7923 14.7918 13.859 14.7918 12.709C14.7918 13.859 13.8585 14.7923 12.7085 14.7923C13.8585 14.7923 14.7918 15.7257 14.7918 16.8757Z" stroke="#777E90" stroke-width="1.5" stroke-linecap="round" stroke-linejoin="round"/>
</svg>
