<svg width="20" height="20" viewBox="0 0 20 20" fill="none" xmlns="http://www.w3.org/2000/svg">
<g id="solar:printer-broken" clip-path="url(#clip0_1541_52699)">
<g id="Group">
<path id="Vector" d="M7.50002 8.33398H5.00002M15.8334 11.6673H4.16669" stroke="white" stroke-width="1.5" stroke-linecap="round"/>
<path id="Vector_2" d="M14.1667 9.16667C14.6269 9.16667 15 8.79357 15 8.33333C15 7.8731 14.6269 7.5 14.1667 7.5C13.7065 7.5 13.3334 7.8731 13.3334 8.33333C13.3334 8.79357 13.7065 9.16667 14.1667 9.16667Z" fill="white"/>
<path id="Vector_3" d="M12.5 13.75H7.50002M10.8334 15.8333H7.50002M18.3334 10C18.3334 12.3567 18.3334 13.5358 17.6009 14.2675C17.0667 14.8025 16.295 14.9467 15 14.9858M5.00002 14.9858C3.70585 14.9467 2.93335 14.8025 2.39919 14.2675C1.66669 13.5358 1.66669 12.3567 1.66669 10C1.66669 7.64333 1.66669 6.46417 2.39919 5.7325C3.13085 5 4.31002 5 6.66669 5H13.3334C15.69 5 16.8692 5 17.6009 5.7325C17.8509 5.9825 18.0159 6.28417 18.1242 6.66667" stroke="white" stroke-width="1.5" stroke-linecap="round"/>
<path id="Vector_4" d="M14.9859 5.00033C14.9467 3.70616 14.8025 2.93366 14.2675 2.39949C13.5359 1.66699 12.3567 1.66699 10 1.66699C7.64336 1.66699 6.4642 1.66699 5.73253 2.39949C5.19753 2.93366 5.05336 3.70616 5.0142 5.00033M15 12.5003V13.3337C15 15.6903 15 16.8695 14.2675 17.6012C13.7334 18.1362 12.9617 18.2803 11.6667 18.3195M5.00003 12.5003V13.3337C5.00003 15.6903 5.00003 16.8695 5.73253 17.6012C6.2667 18.1362 7.0392 18.2803 8.33336 18.3195" stroke="white" stroke-width="1.5" stroke-linecap="round"/>
</g>
</g>
<defs>
<clipPath id="clip0_1541_52699">
<rect width="20" height="20" fill="white"/>
</clipPath>
</defs>
</svg>
