<svg width="20" height="20" viewBox="0 0 20 20" fill="none" xmlns="http://www.w3.org/2000/svg">
<g id="vuesax/linear/group">
<g id="group">
<path id="Vector" d="M10.0001 11.6665H10.8335C11.7501 11.6665 12.5001 10.9165 12.5001 9.99984V1.6665H5.00012C3.75012 1.6665 2.65846 2.35816 2.0918 3.37483" stroke="#777E90" stroke-width="1.5" stroke-linecap="round" stroke-linejoin="round"/>
<path id="Vector_2" d="M1.6665 14.1665C1.6665 15.5498 2.78317 16.6665 4.1665 16.6665H4.99984C4.99984 15.7498 5.74984 14.9998 6.6665 14.9998C7.58317 14.9998 8.33317 15.7498 8.33317 16.6665H11.6665C11.6665 15.7498 12.4165 14.9998 13.3332 14.9998C14.2498 14.9998 14.9998 15.7498 14.9998 16.6665H15.8332C17.2165 16.6665 18.3332 15.5498 18.3332 14.1665V11.6665H15.8332C15.3748 11.6665 14.9998 11.2915 14.9998 10.8332V8.33317C14.9998 7.87484 15.3748 7.49984 15.8332 7.49984H16.9082L15.4832 5.00818C15.1832 4.49151 14.6332 4.1665 14.0332 4.1665H12.4998V9.99984C12.4998 10.9165 11.7498 11.6665 10.8332 11.6665H9.99984" stroke="#777E90" stroke-width="1.5" stroke-linecap="round" stroke-linejoin="round"/>
<path id="Vector_3" d="M6.66667 18.3333C7.58714 18.3333 8.33333 17.5871 8.33333 16.6667C8.33333 15.7462 7.58714 15 6.66667 15C5.74619 15 5 15.7462 5 16.6667C5 17.5871 5.74619 18.3333 6.66667 18.3333Z" stroke="#777E90" stroke-width="1.5" stroke-linecap="round" stroke-linejoin="round"/>
<path id="Vector_4" d="M13.3332 18.3333C14.2536 18.3333 14.9998 17.5871 14.9998 16.6667C14.9998 15.7462 14.2536 15 13.3332 15C12.4127 15 11.6665 15.7462 11.6665 16.6667C11.6665 17.5871 12.4127 18.3333 13.3332 18.3333Z" stroke="#777E90" stroke-width="1.5" stroke-linecap="round" stroke-linejoin="round"/>
<path id="Vector_5" d="M18.3333 10V11.6667H15.8333C15.375 11.6667 15 11.2917 15 10.8333V8.33333C15 7.875 15.375 7.5 15.8333 7.5H16.9083L18.3333 10Z" stroke="#777E90" stroke-width="1.5" stroke-linecap="round" stroke-linejoin="round"/>
<path id="Vector_6" d="M1.6665 6.6665H6.6665" stroke="#777E90" stroke-width="1.5" stroke-linecap="round" stroke-linejoin="round"/>
<path id="Vector_7" d="M1.6665 9.1665H4.99984" stroke="#777E90" stroke-width="1.5" stroke-linecap="round" stroke-linejoin="round"/>
<path id="Vector_8" d="M1.6665 11.6665H3.33317" stroke="#777E90" stroke-width="1.5" stroke-linecap="round" stroke-linejoin="round"/>
</g>
</g>
</svg>
